<svg width="53" height="77" viewBox="0 0 53 77" fill="none" xmlns="http://www.w3.org/2000/svg">
<path d="M49.319 43.2376L50.4997 40.4412C51.1152 38.9872 51.2817 37.3824 50.9778 35.833C50.6739 34.2837 49.9134 32.8606 48.7942 31.747C48.2941 31.2474 47.8975 30.6541 47.6269 30.0011C47.3564 29.3481 47.2173 28.6482 47.2175 27.9413L47.2831 15.3506C47.2831 11.2794 45.6658 7.37489 42.787 4.49609C39.9082 1.61729 36.0037 0 31.9325 0C27.8612 0 23.9568 1.61729 21.078 4.49609C18.1992 7.37489 16.5819 11.2794 16.5819 15.3506V27.9413C16.5777 29.3678 16.0114 30.7352 15.0057 31.747C13.8895 32.8624 13.131 34.2852 12.8272 35.8337C12.5234 37.3821 12.6879 38.986 13.2999 40.4405L13.8874 41.8378C11.8436 43.169 10.2461 45.0825 9.30104 47.3311H5.78687C5.20366 47.3292 4.62779 47.4612 4.1036 47.7169C3.57941 47.9726 3.12087 48.3451 2.76328 48.8058C2.67212 48.9223 2.58772 49.0438 2.51047 49.1699C2.13007 49.7888 1.93491 50.5036 1.9481 51.2299C1.95357 51.5234 1.9923 51.8154 2.06355 52.1001L2.22825 52.7589L2.8581 55.278C3.20231 56.6627 4.00032 57.8921 5.12482 58.7703C6.24933 59.6484 7.63554 60.1247 9.06231 60.1231H10.8032L9.65187 62.8104C9.55353 63.0405 9.44927 63.2699 9.34262 63.4988C9.09979 63.3688 8.84377 63.2651 8.57892 63.1895L8.36737 63.1297C7.88258 62.9913 7.37516 62.9504 6.87447 63.0094C6.37378 63.0685 5.88977 63.2262 5.45044 63.4735C3.76395 64.4217 2.42343 65.8826 1.62334 67.6442L1.00723 69.0087C0.659666 69.778 0.537083 70.63 0.653673 71.4661C0.770263 72.3023 1.12126 73.0882 1.66603 73.7331C1.41967 74.0784 1.18243 74.428 0.954306 74.7818C0.829978 74.9751 0.760013 75.1983 0.751764 75.4279C0.743515 75.6576 0.797288 75.8852 0.90743 76.0869C1.01757 76.2886 1.18002 76.4569 1.37769 76.5742C1.57536 76.6914 1.80096 76.7532 2.03077 76.7531H46.0039C47.6996 76.7512 49.3254 76.0767 50.5245 74.8776C51.7236 73.6785 52.3981 72.0527 52.4 70.357V49.995C52.4001 48.7137 52.1252 47.4474 51.5936 46.2816C51.0621 45.1157 50.2864 44.0777 49.319 43.2376ZM49.8415 49.995V55.0064H45.1322C44.9936 54.8226 44.8499 54.6426 44.6964 54.47C44.5855 53.4337 44.1616 52.4558 43.4811 51.6664C42.8005 50.8771 41.8957 50.3137 40.887 50.0515V43.0845L43.235 43.476H43.2363L44.497 43.6869C45.9907 43.9348 47.3479 44.7051 48.3267 45.8603C49.3055 47.0156 49.8423 48.4809 49.8415 49.995ZM42.4568 64.4284C42.4512 64.4353 42.4462 64.4428 42.4408 64.4499C42.4205 64.4758 42.4005 64.5017 42.3821 64.5298C42.3776 64.5367 42.3739 64.5439 42.3695 64.5508C42.3512 64.5791 42.3336 64.6077 42.3176 64.6374C42.3149 64.6424 42.3128 64.6478 42.3101 64.6534C42.2941 64.6854 42.2781 64.7174 42.2639 64.7511C42.2625 64.7545 42.2615 64.7581 42.2601 64.7615C42.2459 64.7965 42.2329 64.8322 42.2217 64.8686C42.2206 64.8725 42.2199 64.8765 42.2188 64.8802C42.2083 64.9161 42.1987 64.9524 42.1913 64.9897C42.1892 64.9998 42.1884 65.0103 42.1865 65.0204C42.1813 65.0513 42.1758 65.0821 42.1726 65.1136C42.1685 65.1558 42.1662 65.1985 42.1662 65.2415V66.5208H33.7416L32.3078 65.0869C32.1898 64.9701 32.0645 64.861 31.9325 64.7604V50.9368C31.9327 49.6456 31.711 48.364 31.2769 47.148C31.5476 47.3112 31.8694 47.368 32.1797 47.3073C32.49 47.2465 32.7666 47.0726 32.9559 46.8194L36.3399 42.3074C36.4344 42.3352 36.5305 42.3575 36.6277 42.3742L38.3286 42.6577V50.0515C37.5267 50.2581 36.7869 50.6563 36.1728 51.2118C35.5587 51.7673 35.0885 52.4636 34.8028 53.2408C34.517 54.018 34.4242 54.853 34.5322 55.674C34.6403 56.495 34.9459 57.2776 35.423 57.9544C35.9001 58.6313 36.5343 59.1822 37.2713 59.56C38.0082 59.9377 38.8258 60.131 39.6538 60.1231C40.4819 60.1153 41.2957 59.9066 42.0253 59.5149C42.7549 59.1233 43.3786 58.5604 43.8428 57.8747C44.2861 58.96 44.3991 60.152 44.1675 61.3012C43.936 62.4505 43.3703 63.5058 42.5414 64.3347C42.5116 64.3648 42.4835 64.396 42.4568 64.4284ZM21.6962 20.4675H21.6987V25.5844C21.3628 25.5845 21.03 25.5185 20.7196 25.3901C20.4091 25.2617 20.127 25.0734 19.8893 24.8359C19.4092 24.3563 19.1394 23.7057 19.139 23.0272C19.1387 22.3487 19.4079 21.6978 19.8875 21.2177C20.367 20.7377 21.0176 20.4678 21.6962 20.4675ZM44.7247 23.0259C44.7239 23.7042 44.454 24.3545 43.9744 24.8341C43.4948 25.3137 42.8445 25.5835 42.1662 25.5844V20.4675C42.8445 20.4683 43.4948 20.7381 43.9744 21.2177C44.454 21.6973 44.7239 22.3476 44.7247 23.0259ZM39.6078 25.5844H31.4438L33.0766 22.3188C33.1533 22.1684 33.1994 22.0043 33.2124 21.836C33.2253 21.6677 33.2049 21.4984 33.1521 21.3381C33.0993 21.1777 33.0154 21.0293 32.905 20.9016C32.7946 20.7738 32.6601 20.6692 32.5091 20.5936C32.3581 20.5181 32.1936 20.4733 32.0252 20.4616C31.8568 20.45 31.6877 20.4718 31.5278 20.5258C31.3678 20.5798 31.2201 20.6649 31.0932 20.7763C30.9663 20.8876 30.8627 21.023 30.7884 21.1746L28.5835 25.5844H24.2572V19.3827C26.0506 18.258 27.4407 16.5931 28.2272 14.6277L28.4327 14.1139C31.2698 17.4779 35.2495 19.6753 39.6078 20.2842V25.5844ZM29.3675 28.1428H29.3731H29.3776H39.6078C39.6078 30.1784 38.7991 32.1306 37.3597 33.57C35.9203 35.0094 33.9681 35.8181 31.9325 35.8181C29.8969 35.8181 27.9446 35.0094 26.5052 33.57C25.0658 32.1306 24.2572 30.1784 24.2572 28.1428H29.3675ZM31.9325 38.3765C32.7955 38.377 33.6552 38.2682 34.4909 38.0527V39.8508C34.4916 40.0427 34.5136 40.2339 34.5566 40.4209L31.9325 43.9199L29.2994 40.409C29.3482 40.2117 29.3733 40.0093 29.374 39.8061V38.0527C30.2098 38.2682 31.0694 38.377 31.9325 38.3765ZM29.374 54.7985C29.374 55.477 29.1045 56.1278 28.6247 56.6076C28.1449 57.0874 27.4941 57.3569 26.8156 57.3569C26.1371 57.3569 25.4863 57.0874 25.0065 56.6076C24.5267 56.1278 24.2572 55.477 24.2572 54.7985V49.8895H27.5651L29.374 51.6985V54.7985ZM42.1662 55.0064C42.1662 55.5124 42.0162 56.007 41.735 56.4277C41.4539 56.8485 41.0543 57.1764 40.5869 57.37C40.1194 57.5637 39.6049 57.6143 39.1087 57.5156C38.6124 57.4169 38.1565 57.1732 37.7987 56.8154C37.4409 56.4576 37.1972 56.0018 37.0985 55.5055C36.9998 55.0092 37.0505 54.4948 37.2441 54.0273C37.4377 53.5598 37.7657 53.1602 38.1864 52.8791C38.6071 52.598 39.1018 52.4479 39.6078 52.4479C40.2861 52.4487 40.9364 52.7185 41.416 53.1981C41.8957 53.6777 42.1655 54.3281 42.1662 55.0064ZM48.1418 39.4479L47.1334 41.836C46.4273 41.5166 45.6826 41.2905 44.9181 41.1636L43.6568 40.9527H43.6559L37.0494 39.8508V36.9998C38.604 36.1018 39.8951 34.8107 40.7932 33.2561C41.6914 31.7016 42.1648 29.9381 42.1662 28.1428C43.0393 28.1435 43.8978 27.9194 44.6591 27.4921V27.9413C44.6589 28.9843 44.8643 30.0171 45.2636 30.9806C45.6629 31.9441 46.2483 32.8195 46.9862 33.5566C47.7444 34.3113 48.2596 35.2756 48.4655 36.3254C48.6714 37.3752 48.5587 38.4626 48.1418 39.4479ZM31.9325 2.55844C35.325 2.55916 38.5783 3.90713 40.9771 6.30597C43.376 8.70481 44.7239 11.9581 44.7247 15.3506V18.5974C43.9477 18.1459 43.0649 17.9083 42.1662 17.909C41.7665 17.909 41.3697 17.8931 40.9845 17.8632C38.6458 17.6916 36.3775 16.9863 34.3537 15.8016C32.33 14.6169 30.6046 12.9843 29.3101 11.0289L29.1598 10.8035C29.0305 10.6095 28.8506 10.4545 28.6397 10.3553C28.4287 10.2562 28.1947 10.2165 27.9628 10.2406C27.731 10.2648 27.5101 10.3518 27.3241 10.4924C27.1381 10.6329 26.9941 10.8216 26.9076 11.038L25.8522 13.678C25.4622 14.6551 24.8691 15.5381 24.1121 16.2686C23.3552 16.9991 22.4516 17.5605 21.4613 17.9154C20.644 17.9525 19.8478 18.1865 19.1403 18.5974V15.3506C19.1442 11.9591 20.4931 8.70759 22.8913 6.30943C25.2895 3.91127 28.541 2.56229 31.9325 2.55844ZM16.8148 33.5566C17.5545 32.8209 18.1409 31.9457 18.54 30.9819C18.9392 30.018 19.1432 28.9846 19.1403 27.9413V27.4552C19.9174 27.9065 20.8001 28.1437 21.6987 28.1428C21.7001 29.9381 22.1736 31.7016 23.0718 33.2561C23.9699 34.8107 25.261 36.1017 26.8156 36.9998V39.8062L23.9543 40.1636C23.7122 40.0884 23.4652 40.0176 23.2109 39.9573C20.8468 39.3985 18.3654 39.6203 16.1378 40.5894L15.6581 39.4495C15.2431 38.4636 15.1315 37.3763 15.3375 36.3266C15.5434 35.277 16.0577 34.3125 16.8145 33.5566H16.8148ZM5.78687 49.8895H6.34813V50.1564C6.34783 50.4248 6.24108 50.6821 6.05129 50.8719C5.86151 51.0617 5.60419 51.1684 5.33579 51.1687H4.50925C4.50925 51.1609 4.50925 51.1527 4.51021 51.1454C4.51121 51.0918 4.51554 51.0384 4.52316 50.9855C4.5254 50.9695 4.52748 50.9535 4.53036 50.9375C4.54113 50.8765 4.55636 50.8164 4.57593 50.7576C4.57801 50.7514 4.58105 50.7454 4.58313 50.7392C4.60253 50.6859 4.62539 50.6339 4.65157 50.5836C4.65913 50.5689 4.66697 50.5544 4.67507 50.54C4.70608 50.4841 4.7412 50.4307 4.78013 50.3801C4.8993 50.2268 5.05201 50.1029 5.22653 50.0179C5.40105 49.9328 5.59273 49.8889 5.78687 49.8895ZM15.3027 60.1232C15.4706 60.1232 15.637 60.0902 15.7922 60.0259C15.9474 59.9616 16.0884 59.8674 16.2072 59.7486L18.7657 57.1901C18.8844 57.0714 18.9787 56.9303 19.043 56.7751C19.1072 56.6199 19.1403 56.4536 19.1403 56.2856C19.1403 56.1176 19.1072 55.9512 19.043 55.796C18.9787 55.6408 18.8844 55.4998 18.7657 55.381C18.6469 55.2622 18.5058 55.168 18.3506 55.1037C18.1954 55.0394 18.0291 55.0063 17.8611 55.0063C17.6931 55.0063 17.5267 55.0394 17.3715 55.1037C17.2163 55.168 17.0753 55.2622 16.9565 55.381L14.7729 57.5648H9.06327C8.20718 57.5658 7.37543 57.28 6.70072 56.7531C6.02602 56.2261 5.54722 55.4884 5.34074 54.6576L5.10825 53.7271H5.33579C6.28248 53.726 7.19008 53.3495 7.85949 52.6801C8.5289 52.0107 8.90546 51.1031 8.90656 50.1564V49.8895H10.1858C10.4542 49.8895 10.7159 49.805 10.9337 49.648C11.1515 49.491 11.3144 49.2695 11.3993 49.0148C12.1272 46.8286 13.6132 44.975 15.5887 43.7891L16.1513 43.4533C18.0939 42.2874 20.4151 41.9263 22.6201 42.4468C22.898 42.5127 23.1667 42.5902 23.4263 42.6793C23.7936 42.8038 24.1521 42.9528 24.4994 43.1253L24.5674 43.1602C25.1478 43.4501 25.6936 43.8049 26.1942 44.2176C26.2075 44.2286 26.2211 44.2395 26.2348 44.2496C27.2794 45.1157 28.106 46.215 28.6481 47.459C28.4756 47.3754 28.2865 47.3317 28.0948 47.3311H22.978C22.6387 47.3311 22.3133 47.4658 22.0734 47.7057C21.8335 47.9456 21.6987 48.271 21.6987 48.6103V54.7985C21.6962 55.6976 21.931 56.5815 22.3796 57.3608C22.8282 58.14 23.4746 58.787 24.2535 59.2363C25.0323 59.6856 25.916 59.9212 26.8151 59.9195C27.7142 59.9177 28.597 59.6785 29.374 59.2262V63.9609C28.5801 63.9606 27.8056 64.2065 27.1572 64.6647C26.5088 65.1229 26.0184 65.7708 25.7535 66.5193H25.5364C24.638 66.5186 23.7553 66.7547 22.9771 67.2037C22.1989 67.6528 21.5528 68.2989 21.1039 69.0771C20.6549 69.8552 20.4188 70.738 20.4196 71.6364C20.4203 72.5348 20.6577 73.4172 21.1079 74.1946H14.6082C15.0775 73.3864 15.3166 72.4651 15.2997 71.5306C15.2828 70.5962 15.0105 69.6841 14.5123 68.8934C15.3211 67.4505 15.9922 65.9346 16.5166 64.3658C16.624 64.0439 16.5991 63.6926 16.4475 63.3891C16.2958 63.0856 16.0298 62.8548 15.708 62.7474C15.3862 62.64 15.0348 62.6649 14.7313 62.8165C14.4278 62.9682 14.197 63.2342 14.0896 63.556C13.6822 64.7752 13.1764 65.9592 12.5774 67.0966C12.259 66.9279 11.9236 66.7933 11.5769 66.6952L11.3678 66.636C11.3453 66.2856 11.2743 65.9399 11.1569 65.609C11.4632 65.0198 11.7475 64.4192 12.0043 63.817L13.5874 60.1232H15.3027ZM3.33941 70.0616L3.95551 68.6972C4.52931 67.4342 5.49053 66.3868 6.69975 65.707C6.84622 65.6247 7.00754 65.5722 7.17439 65.5525C7.34125 65.5328 7.51036 65.5464 7.67196 65.5924L7.88335 65.6522C8.20964 65.7447 8.48588 65.963 8.65145 66.259C8.81702 66.555 8.85839 66.9046 8.76649 67.231C8.67422 67.5575 8.71542 67.9072 8.881 68.2033C9.04659 68.4994 9.32301 68.7176 9.64947 68.8099L10.8807 69.1579C11.5299 69.3456 12.0784 69.7826 12.4065 70.3734C12.7346 70.9642 12.8156 71.6608 12.6319 72.3111C12.4482 72.9615 12.0146 73.5127 11.4259 73.8445C10.8371 74.1762 10.141 74.2616 9.48956 74.0819L4.56458 72.6907C4.29964 72.6161 4.05394 72.4852 3.84425 72.3069C3.63456 72.1286 3.46583 71.9072 3.34959 71.6577C3.23335 71.4082 3.17233 71.1366 3.17071 70.8613C3.16909 70.5861 3.22691 70.3138 3.34021 70.0629L3.33941 70.0616ZM49.8415 70.357C49.8403 71.3744 49.4356 72.3498 48.7162 73.0693C47.9967 73.7887 47.0213 74.1934 46.0039 74.1946H25.5364C24.8579 74.1946 24.2071 73.9251 23.7273 73.4453C23.2475 72.9655 22.978 72.3147 22.978 71.6362C22.978 70.9576 23.2475 70.3069 23.7273 69.8271C24.2071 69.3473 24.8579 69.0778 25.5364 69.0778H26.8156C27.1549 69.0778 27.4803 68.943 27.7202 68.7031C27.9601 68.4632 28.0948 68.1378 28.0948 67.7985C28.0944 67.6304 28.1272 67.4639 28.1914 67.3085C28.2555 67.1531 28.3497 67.012 28.4686 66.8931C28.5875 66.7742 28.7287 66.68 28.884 66.6159C29.0394 66.5517 29.2059 66.5189 29.374 66.5193H29.5931C29.9323 66.5219 30.2571 66.6565 30.4986 66.8946L32.3071 68.7031C32.4259 68.8219 32.5669 68.9161 32.7222 68.9804C32.8774 69.0447 33.0437 69.0778 33.2117 69.0778H43.4454C43.7847 69.0778 44.1101 68.943 44.35 68.7031C44.5899 68.4632 44.7247 68.1378 44.7247 67.7985V65.7457C45.6911 64.6453 46.3577 63.3145 46.6602 61.8815C46.9626 60.4486 46.8908 58.9619 46.4516 57.5648H49.8415V70.357Z" fill="black"/>
</svg>
