<svg width="78" height="78" viewBox="0 0 78 78" fill="none" xmlns="http://www.w3.org/2000/svg">
<path d="M74.5723 62.0801H70.0037V61.4963C70.0037 60.8649 69.492 60.3537 68.8612 60.3537C68.2298 60.3537 67.7186 60.8649 67.7186 61.4963V62.0801H60.8613V30.9276C60.8613 27.2725 57.8882 24.2988 54.2344 24.2988H51.4267C52.0028 23.261 52.3313 22.0684 52.3313 20.8003C52.3313 19.5893 52.0307 18.4473 51.5029 17.4434H54.5391C61.8063 17.4434 67.7186 23.3556 67.7186 30.6229V56.6463C67.7186 57.2777 68.2298 57.7889 68.8612 57.7889C69.492 57.7889 70.0037 57.2777 70.0037 56.6463V30.6229C70.0037 22.0952 63.0661 15.1582 54.5391 15.1582H49.6188C48.5953 14.3358 47.3438 13.7865 45.9757 13.6193C45.3788 12.0137 43.8298 10.8926 42.0499 10.8926H40.1456V6.81381C41.7832 6.55673 43.0401 5.13625 43.0401 3.42773C43.0401 1.53772 41.5024 0 39.6124 0H26.2061C24.3161 0 22.7784 1.53772 22.7784 3.42773C22.7784 5.13625 24.0352 6.55673 25.6729 6.81381V10.8926H23.7686C21.4585 10.8926 19.5791 12.7719 19.5791 15.082V19.4875C19.5791 20.1183 20.0909 20.6301 20.7217 20.6301C21.3525 20.6301 21.8643 20.1183 21.8643 19.4875V15.082C21.8643 14.0317 22.7189 13.1777 23.7686 13.1777H42.0499C42.5848 13.1777 43.0728 13.4003 43.4209 13.7615C40.236 14.5191 37.8592 17.3862 37.8592 20.8003C37.8592 24.4024 40.5044 27.3969 43.9541 27.9456V48.5977C43.9541 49.648 43.1002 50.502 42.0499 50.502H23.7686C22.7189 50.502 21.8643 49.648 21.8643 48.5977V24.356C21.8643 23.7246 21.3525 23.2134 20.7217 23.2134C20.0909 23.2134 19.5791 23.7246 19.5791 24.356V48.5977C19.5791 50.9078 21.4585 52.7871 23.7686 52.7871H26.4346V56.2148C26.4346 56.8462 26.9464 57.3574 27.5772 57.3574H38.2413C38.8721 57.3574 39.3838 56.8462 39.3838 56.2148V52.7871H42.0499C44.36 52.7871 46.2393 50.9078 46.2393 48.5977V27.9456C47.4259 27.7557 48.5179 27.2779 49.4385 26.584H54.2344C56.6284 26.584 58.5762 28.5323 58.5762 30.9276V62.0801H3.42773C1.53772 62.0801 0 63.6178 0 65.5078C0 67.3978 1.53772 68.9355 3.42773 68.9355H12.0244C12.5945 74.0278 16.9244 78 22.166 78H55.834C61.0756 78 65.4055 74.0278 65.9756 68.9355H74.5723C76.4623 68.9355 78 67.3978 78 65.5078C78 63.6178 76.4623 62.0801 74.5723 62.0801ZM25.0635 3.42773C25.0635 2.79753 25.5759 2.28516 26.2061 2.28516H39.6124C40.2426 2.28516 40.7549 2.79753 40.7549 3.42773C40.7549 4.05794 40.2426 4.57031 39.6124 4.57031H26.2061C25.5759 4.57031 25.0635 4.05794 25.0635 3.42773ZM27.9581 10.8926V6.85547H37.8604V10.8926H27.9581ZM37.0987 55.0723H28.7198V52.7871H37.0987V55.0723ZM40.1444 20.8003C40.1444 18.07 42.3652 15.8491 45.0955 15.8491C47.8252 15.8491 50.0467 18.07 50.0467 20.8003C50.0467 23.527 47.8312 25.7449 45.1062 25.7509C45.1027 25.7509 45.0997 25.7509 45.0967 25.7509C45.0932 25.7509 45.0902 25.7509 45.0866 25.7509C42.3605 25.7467 40.1444 23.5276 40.1444 20.8003ZM74.5723 66.6504H20.7188C20.088 66.6504 19.5762 67.1616 19.5762 67.793C19.5762 68.4244 20.088 68.9355 20.7188 68.9355H63.6725C63.1167 72.7644 59.814 75.7148 55.834 75.7148H22.166C18.186 75.7148 14.8833 72.7644 14.3275 68.9355H15.8687C16.5001 68.9355 17.0113 68.4244 17.0113 67.793C17.0113 67.1616 16.5001 66.6504 15.8687 66.6504H3.42773C2.79753 66.6504 2.28516 66.138 2.28516 65.5078C2.28516 64.8776 2.79753 64.3652 3.42773 64.3652H74.5723C75.2025 64.3652 75.7148 64.8776 75.7148 65.5078C75.7148 66.138 75.2025 66.6504 74.5723 66.6504Z" fill="black"/>
</svg>
