<svg width="76" height="76" viewBox="0 0 76 76" fill="none" xmlns="http://www.w3.org/2000/svg">
<path d="M74.6719 17.7188H58.2188V1.26562C58.2188 0.92996 58.0854 0.608044 57.8481 0.370693C57.6107 0.133342 57.2888 0 56.9531 0H18.9844C18.6487 0 18.3268 0.133342 18.0894 0.370693C17.8521 0.608044 17.7188 0.92996 17.7188 1.26562V17.7188H1.26562C0.92996 17.7188 0.608044 17.8521 0.370693 18.0894C0.133342 18.3268 0 18.6487 0 18.9844V56.9531C0 57.2888 0.133342 57.6107 0.370693 57.8481C0.608044 58.0854 0.92996 58.2188 1.26562 58.2188H17.7188V74.6719C17.7188 75.0075 17.8521 75.3295 18.0894 75.5668C18.3268 75.8042 18.6487 75.9375 18.9844 75.9375H56.9531C57.2888 75.9375 57.6107 75.8042 57.8481 75.5668C58.0854 75.3295 58.2188 75.0075 58.2188 74.6719V58.2188H74.6719C75.0075 58.2188 75.3295 58.0854 75.5668 57.8481C75.8042 57.6107 75.9375 57.2888 75.9375 56.9531V18.9844C75.9375 18.6487 75.8042 18.3268 75.5668 18.0894C75.3295 17.8521 75.0075 17.7188 74.6719 17.7188ZM17.7214 55.6875H16.7505C16.0097 55.6876 15.2888 55.4474 14.6961 55.003C12.5245 53.373 11.0887 50.9477 10.704 48.2599C10.4474 46.4293 10.9101 44.5706 11.9951 43.0741L13.0393 47.2489C13.3306 48.4192 13.9613 49.4773 14.8521 50.2902C15.743 51.1032 16.8542 51.6346 18.0462 51.8179C17.8428 53.098 17.7342 54.3914 17.7214 55.6875ZM20.25 73.4062V68.9766C20.2482 69.7249 20.3948 70.4663 20.6812 71.1577C20.9676 71.8491 21.3882 72.4769 21.9187 73.0047C22.0607 73.1462 22.2099 73.2802 22.3658 73.4062H20.25ZM29.1094 68.3438V68.9766C29.1094 69.8157 28.776 70.6205 28.1826 71.2139C27.5893 71.8073 26.7845 72.1406 25.9453 72.1406C25.1062 72.1406 24.3014 71.8073 23.708 71.2139C23.1146 70.6205 22.7812 69.8157 22.7812 68.9766V68.0273C22.7825 67.5364 22.8974 67.0523 23.1169 66.6132C23.3365 66.174 23.6548 65.7917 24.0469 65.4961C25.2259 64.612 26.1828 63.4656 26.8419 62.1475C27.5009 60.8294 27.8439 59.376 27.8438 57.9023V56.9531C27.8438 56.6175 27.7104 56.2955 27.4731 56.0582C27.2357 55.8208 26.9138 55.6875 26.5781 55.6875C26.2425 55.6875 25.9205 55.8208 25.6832 56.0582C25.4458 56.2955 25.3125 56.6175 25.3125 56.9531V57.9023C25.3127 58.983 25.0612 60.0489 24.5779 61.0155C24.0946 61.9821 23.3928 62.8228 22.5281 63.4711C21.8224 64.0031 21.2495 64.6914 20.8543 65.4818C20.459 66.2723 20.2522 67.1436 20.25 68.0273V55.9564C20.2499 54.2543 20.4325 52.5571 20.7949 50.8939C20.7966 50.8859 20.7985 50.8781 20.8001 50.8699C20.98 50.0465 21.2035 49.2333 21.4696 48.4336L22.1597 46.3651C23.2977 42.9607 25.2096 39.8665 27.7452 37.3257L27.8387 37.2322C30.2167 34.8603 32.118 32.0546 33.4399 28.967L35.0061 25.3125H36.7031C36.8693 25.3125 37.0339 25.2798 37.1875 25.2162C37.341 25.1526 37.4806 25.0594 37.5981 24.9418L40.1293 22.4106C40.3667 22.1732 40.5 21.8513 40.5 21.5156C40.5 21.18 40.3667 20.858 40.1293 20.6207C39.892 20.3833 39.57 20.25 39.2344 20.25C38.8987 20.25 38.5768 20.3833 38.3394 20.6207L36.179 22.7812H30.53C29.6831 22.7822 28.8602 22.4994 28.1927 21.9781C27.5251 21.4568 27.0514 20.7269 26.8471 19.905L26.6169 18.9844H27.8438C28.5148 18.9836 29.1582 18.7166 29.6327 18.2421C30.1073 17.7676 30.3742 17.1242 30.375 16.4531V15.1875H31.6406C31.9063 15.1875 32.1652 15.104 32.3807 14.9486C32.5962 14.7933 32.7574 14.5741 32.8414 14.3221C33.5617 12.1593 35.0319 10.3254 36.9863 9.15205L37.5429 8.81982C38.7816 8.07722 40.1873 7.65823 41.6304 7.60144C43.0736 7.54466 44.5078 7.8519 45.8011 8.49487L45.8686 8.52952C47.6767 9.42753 49.1096 10.9352 49.9145 12.7866C49.7418 12.7015 49.5519 12.6569 49.3594 12.6562H44.2969C43.9612 12.6562 43.6393 12.7896 43.4019 13.0269C43.1646 13.2643 43.0312 13.5862 43.0312 13.9219V20.0443C43.0286 20.9339 43.261 21.8085 43.7048 22.5795C44.1486 23.3505 44.7882 23.9906 45.5587 24.4351C46.3293 24.8796 47.2036 25.1128 48.0932 25.111C48.9828 25.1092 49.8562 24.8726 50.625 24.425V35.3461C50.1085 34.6022 49.4768 33.9453 48.7536 33.4002L45.0562 30.6281C44.8682 30.4871 44.6446 30.4012 44.4105 30.3801C44.1764 30.359 43.9411 30.4035 43.7309 30.5086C43.5206 30.6137 43.3438 30.7753 43.2203 30.9752C43.0967 31.1752 43.0312 31.4056 43.0312 31.6406V34.4494L41.8447 34.7462C40.7429 35.0185 39.7282 35.5657 38.8954 36.3368C38.0626 37.1079 37.4389 38.0776 37.0828 39.1553L37.0564 39.2344H34.1719C33.8362 39.2344 33.5143 39.3677 33.2769 39.6051C33.0396 39.8424 32.9062 40.1643 32.9062 40.5V43.5217C32.9078 44.7339 33.3902 45.896 34.2474 46.7531C35.1047 47.6102 36.2669 48.0924 37.4791 48.0938H39.7178L38.5487 50.4318C38.3651 50.7997 38.0802 51.1075 37.7275 51.3189C33.9321 53.5891 31.1455 57.2215 29.9361 61.4755L29.7479 62.1341C29.3242 63.617 29.1093 65.1518 29.1094 66.694C29.1098 67.0295 29.1283 67.3647 29.1649 67.6981C29.1281 67.9114 29.1096 68.1274 29.1094 68.3438ZM26.0244 16.4531C26.0244 16.4458 26.0244 16.4386 26.0244 16.4313C26.0254 16.378 26.0297 16.3248 26.0374 16.272C26.0396 16.2562 26.0417 16.2403 26.0445 16.2255C26.0552 16.1651 26.0702 16.1057 26.0894 16.0475C26.0917 16.0412 26.0947 16.035 26.097 16.0287C26.116 15.9762 26.1384 15.925 26.1643 15.8755C26.1719 15.8608 26.1801 15.8463 26.1877 15.8319C26.2184 15.7767 26.2531 15.7238 26.2915 15.6737C26.4094 15.5219 26.5606 15.3991 26.7333 15.3149C26.9061 15.2306 27.0959 15.1871 27.2881 15.1877H27.8438V16.4533L26.0244 16.4531ZM50.625 16.9773V20.0443C50.625 20.7157 50.3583 21.3595 49.8836 21.8342C49.4089 22.3089 48.7651 22.5756 48.0938 22.5756C47.4224 22.5756 46.7786 22.3089 46.3039 21.8342C45.8292 21.3595 45.5625 20.7157 45.5625 20.0443V15.1875H48.8353L50.625 16.9773ZM29.5196 73.4062C30.0155 73.0052 30.4412 72.5243 30.7791 71.9834C31.1395 72.4979 31.5512 72.9746 32.0077 73.4062H29.5196ZM51.1085 73.4062H48.0938V59.4844C48.0938 59.1487 47.9604 58.8268 47.7231 58.5894C47.4857 58.3521 47.1638 58.2188 46.8281 58.2188C46.4925 58.2188 46.1705 58.3521 45.9332 58.5894C45.6958 58.8268 45.5625 59.1487 45.5625 59.4844V68.6404C45.0802 68.4443 44.5644 68.3435 44.0438 68.3438H42.8651L43.0377 68.0849C43.5931 67.2518 43.912 66.2835 43.9603 65.2834C44.0086 64.2832 43.7846 63.2887 43.3121 62.4059C42.8396 61.5231 42.1363 60.7851 41.2773 60.2706C40.4183 59.7561 39.4358 59.4843 38.4345 59.4844H37.9688C37.6331 59.4844 37.3112 59.6177 37.0738 59.8551C36.8365 60.0924 36.7031 60.4143 36.7031 60.75C36.7031 61.0857 36.8365 61.4076 37.0738 61.6449C37.3112 61.8823 37.6331 62.0156 37.9688 62.0156H38.4345C38.9776 62.0156 39.5106 62.163 39.9765 62.442C40.4425 62.7211 40.824 63.1214 41.0803 63.6003C41.3366 64.0791 41.4581 64.6186 41.4319 65.1611C41.4057 65.7036 41.2327 66.2288 40.9314 66.6807L39.447 68.9073C39.3199 69.0979 39.2469 69.3194 39.2359 69.5482C39.2248 69.777 39.276 70.0045 39.3841 70.2065C39.4922 70.4085 39.6531 70.5774 39.8496 70.6951C40.0461 70.8128 40.2709 70.875 40.5 70.875H44.0438C44.4464 70.8756 44.8323 71.0358 45.117 71.3205C45.4017 71.6052 45.5619 71.9911 45.5625 72.3938V73.4062H38.3529C36.5733 73.4042 34.8672 72.6964 33.6088 71.4381C32.3505 70.1797 31.6426 68.4736 31.6406 66.694C31.6406 65.3871 31.8228 64.0865 32.1818 62.8299L32.3699 62.1713C33.4038 58.5349 35.7858 55.4298 39.0303 53.4893C39.796 53.0306 40.4146 52.3626 40.8134 51.5641L42.8068 47.5774L43.9273 46.4568C44.1647 46.2195 44.298 45.8975 44.298 45.5619C44.298 45.2262 44.1647 44.9043 43.9273 44.6669C43.69 44.4296 43.368 44.2962 43.0324 44.2962C42.6967 44.2962 42.3748 44.4296 42.1374 44.6669L41.2415 45.5625H37.4791C36.938 45.5619 36.4191 45.3467 36.0364 44.9642C35.6537 44.5816 35.4383 44.0628 35.4375 43.5217V41.7656H37.9688C38.2344 41.7656 38.4933 41.6821 38.7088 41.5268C38.9243 41.3715 39.0855 41.1523 39.1695 40.9003L39.4843 39.9559C39.7068 39.2828 40.0963 38.6771 40.6164 38.1954C41.1366 37.7137 41.7704 37.3718 42.4586 37.2016L44.604 36.6653C44.8778 36.5968 45.1208 36.4388 45.2945 36.2163C45.4682 35.9939 45.5625 35.7197 45.5625 35.4375V34.1719L47.2349 35.4263C47.9749 35.9826 48.576 36.7028 48.9909 37.5304C50.063 39.681 50.6223 42.0507 50.625 44.4537V70.875C50.625 71.0412 50.6577 71.2058 50.7213 71.3593C50.7849 71.5129 50.8781 71.6524 50.9957 71.77L51.6163 72.3906L51.1085 73.4062ZM73.4062 55.6875H56.9531C56.6175 55.6875 56.2955 55.8208 56.0582 56.0582C55.8208 56.2955 55.6875 56.6175 55.6875 56.9531V73.4062H53.9384L54.2882 72.7067C54.407 72.4691 54.448 72.2001 54.4054 71.9379C54.3628 71.6756 54.2388 71.4335 54.0509 71.2457L53.1562 70.3509V16.2237C53.1635 14.1571 52.5921 12.1297 51.5066 10.371C50.4211 8.61234 48.865 7.19268 47.0143 6.27275L46.9454 6.23747C45.2706 5.40068 43.4119 4.99969 41.5412 5.07159C39.6704 5.14348 37.848 5.68594 36.2424 6.6488L35.6865 6.98103C33.4847 8.30171 31.7609 10.2896 30.7653 12.6562H27.2885C26.7115 12.6563 26.1421 12.7879 25.6236 13.0409C25.1051 13.2939 24.6511 13.6618 24.2961 14.1166C23.941 14.5714 23.6943 15.1011 23.5746 15.6655C23.4549 16.2299 23.4654 16.8141 23.6053 17.3739L24.3914 20.5188C24.7321 21.8887 25.5216 23.105 26.6342 23.9738C27.7467 24.8426 29.1181 25.3139 30.5297 25.3123H32.2521L31.113 27.9702C29.918 30.7617 28.1987 33.2983 26.0485 35.4424L25.955 35.5359C23.1419 38.3554 21.0208 41.7886 19.7581 45.566L19.0681 47.6342C18.8811 48.1957 18.7137 48.7619 18.5661 49.3328C17.8404 49.2492 17.1576 48.9461 16.6087 48.4641C16.0598 47.9822 15.671 47.3442 15.4943 46.6354L13.8841 40.1931C13.8298 39.9758 13.7188 39.7768 13.5624 39.6165C13.406 39.4561 13.2099 39.3401 12.9941 39.2803C12.7782 39.2205 12.5504 39.2191 12.3338 39.2761C12.1172 39.3332 11.9197 39.4467 11.7613 39.605L10.9228 40.4435C9.86849 41.5031 9.07384 42.7924 8.60112 44.2104C8.12839 45.6284 7.99045 47.1367 8.19809 48.6169C8.57771 51.2801 9.78987 53.7549 11.6612 55.6875H2.53125V20.25H18.9844C19.32 20.25 19.642 20.1167 19.8793 19.8793C20.1167 19.642 20.25 19.32 20.25 18.9844V2.53125H55.6875V18.9844C55.6875 19.32 55.8208 19.642 56.0582 19.8793C56.2955 20.1167 56.6175 20.25 56.9531 20.25H73.4062V55.6875Z" fill="black"/>
</svg>
